<mxfile host="app.diagrams.net" agent="Mozilla/5.0 (Windows NT 10.0; Win64; x64) AppleWebKit/537.36 (KHTML, like Gecko) Chrome/136.0.0.0 Safari/537.36 Edg/136.0.0.0" version="27.0.2">
  <diagram id="qPOIcfFmHbnymQS1OXpa" name="Pagina-1">
    <mxGraphModel dx="1978" dy="1729" grid="0" gridSize="10" guides="1" tooltips="1" connect="1" arrows="1" fold="1" page="1" pageScale="1" pageWidth="1169" pageHeight="827" math="0" shadow="0">
      <root>
        <mxCell id="0" />
        <mxCell id="1" parent="0" />
        <mxCell id="7lBY_pQXQDnRPIEdI0AO-6" value="Packege Diagram" style="shape=umlFrame;whiteSpace=wrap;html=1;width=130;height=30;boundedLbl=1;verticalAlign=middle;align=left;spacingLeft=5;fontFamily=Helvetica;fontSize=12;fontColor=default;fillColor=none;" parent="1" vertex="1">
          <mxGeometry x="11" y="77" width="1090" height="760" as="geometry" />
        </mxCell>
        <mxCell id="7lBY_pQXQDnRPIEdI0AO-42" style="edgeStyle=orthogonalEdgeStyle;rounded=0;orthogonalLoop=1;jettySize=auto;html=1;exitX=0.5;exitY=1;exitDx=0;exitDy=0;exitPerimeter=0;entryX=0;entryY=0;entryDx=330;entryDy=30;entryPerimeter=0;fontFamily=Helvetica;fontSize=12;fontColor=default;" parent="1" source="7lBY_pQXQDnRPIEdI0AO-3" target="7lBY_pQXQDnRPIEdI0AO-29" edge="1">
          <mxGeometry relative="1" as="geometry">
            <Array as="points">
              <mxPoint x="885" y="460" />
              <mxPoint x="412" y="460" />
            </Array>
          </mxGeometry>
        </mxCell>
        <mxCell id="7lBY_pQXQDnRPIEdI0AO-59" style="edgeStyle=orthogonalEdgeStyle;rounded=0;orthogonalLoop=1;jettySize=auto;html=1;exitX=0.5;exitY=1;exitDx=0;exitDy=0;exitPerimeter=0;entryX=0;entryY=0;entryDx=55;entryDy=0;entryPerimeter=0;fontFamily=Helvetica;fontSize=12;fontColor=default;" parent="1" source="7lBY_pQXQDnRPIEdI0AO-3" target="7lBY_pQXQDnRPIEdI0AO-46" edge="1">
          <mxGeometry relative="1" as="geometry" />
        </mxCell>
        <mxCell id="7lBY_pQXQDnRPIEdI0AO-3" value="AcolpiDiBit.m" style="shape=folder;fontStyle=1;tabWidth=110;tabHeight=30;tabPosition=left;html=1;boundedLbl=1;labelInHeader=1;container=1;collapsible=0;recursiveResize=0;fontFamily=Helvetica;fontSize=12;fontColor=default;fillColor=none;" parent="1" vertex="1">
          <mxGeometry x="810" y="250" width="150" height="100" as="geometry" />
        </mxCell>
        <mxCell id="7lBY_pQXQDnRPIEdI0AO-4" value="placementUI[]" style="html=1;fontFamily=Helvetica;fontSize=12;fontColor=default;fillColor=none;" parent="7lBY_pQXQDnRPIEdI0AO-3" vertex="1">
          <mxGeometry width="110" height="30" relative="1" as="geometry">
            <mxPoint x="20" y="50" as="offset" />
          </mxGeometry>
        </mxCell>
        <mxCell id="7lBY_pQXQDnRPIEdI0AO-52" style="edgeStyle=orthogonalEdgeStyle;rounded=0;orthogonalLoop=1;jettySize=auto;html=1;entryX=0.946;entryY=0.167;entryDx=0;entryDy=0;entryPerimeter=0;fontFamily=Helvetica;fontSize=12;fontColor=default;" parent="7lBY_pQXQDnRPIEdI0AO-3" target="7lBY_pQXQDnRPIEdI0AO-43" edge="1">
          <mxGeometry relative="1" as="geometry">
            <mxPoint x="75" y="100" as="sourcePoint" />
          </mxGeometry>
        </mxCell>
        <mxCell id="1x8Cyjn647WYstZl3578-10" style="edgeStyle=orthogonalEdgeStyle;rounded=0;orthogonalLoop=1;jettySize=auto;html=1;entryX=0;entryY=0;entryDx=0;entryDy=30;entryPerimeter=0;" parent="1" source="7lBY_pQXQDnRPIEdI0AO-7" target="7lBY_pQXQDnRPIEdI0AO-46" edge="1">
          <mxGeometry relative="1" as="geometry">
            <Array as="points">
              <mxPoint x="765" y="429" />
              <mxPoint x="765" y="429" />
            </Array>
          </mxGeometry>
        </mxCell>
        <mxCell id="7lBY_pQXQDnRPIEdI0AO-7" value="SpiegazioneConversione.m" style="shape=folder;fontStyle=1;tabWidth=178;tabHeight=28;tabPosition=left;html=1;boundedLbl=1;labelInHeader=1;container=1;collapsible=0;recursiveResize=0;fontFamily=Helvetica;fontSize=12;fontColor=default;fillColor=none;" parent="1" vertex="1">
          <mxGeometry x="139" y="208" width="559" height="228" as="geometry" />
        </mxCell>
        <mxCell id="7lBY_pQXQDnRPIEdI0AO-12" style="edgeStyle=orthogonalEdgeStyle;rounded=0;orthogonalLoop=1;jettySize=auto;html=1;entryX=0.5;entryY=0;entryDx=0;entryDy=0;fontFamily=Helvetica;fontSize=12;fontColor=default;" parent="7lBY_pQXQDnRPIEdI0AO-7" source="7lBY_pQXQDnRPIEdI0AO-8" target="7lBY_pQXQDnRPIEdI0AO-11" edge="1">
          <mxGeometry relative="1" as="geometry">
            <Array as="points">
              <mxPoint x="275" y="100" />
              <mxPoint x="75" y="100" />
            </Array>
          </mxGeometry>
        </mxCell>
        <mxCell id="7lBY_pQXQDnRPIEdI0AO-18" style="edgeStyle=orthogonalEdgeStyle;rounded=0;orthogonalLoop=1;jettySize=auto;html=1;entryX=0.5;entryY=0;entryDx=0;entryDy=0;fontFamily=Helvetica;fontSize=12;fontColor=default;" parent="7lBY_pQXQDnRPIEdI0AO-7" source="7lBY_pQXQDnRPIEdI0AO-8" target="7lBY_pQXQDnRPIEdI0AO-17" edge="1">
          <mxGeometry relative="1" as="geometry" />
        </mxCell>
        <mxCell id="7lBY_pQXQDnRPIEdI0AO-21" style="edgeStyle=orthogonalEdgeStyle;rounded=0;orthogonalLoop=1;jettySize=auto;html=1;entryX=0.5;entryY=0;entryDx=0;entryDy=0;fontFamily=Helvetica;fontSize=12;fontColor=default;" parent="7lBY_pQXQDnRPIEdI0AO-7" source="7lBY_pQXQDnRPIEdI0AO-8" target="7lBY_pQXQDnRPIEdI0AO-20" edge="1">
          <mxGeometry relative="1" as="geometry">
            <Array as="points">
              <mxPoint x="275" y="100" />
              <mxPoint x="345" y="100" />
            </Array>
          </mxGeometry>
        </mxCell>
        <mxCell id="7lBY_pQXQDnRPIEdI0AO-23" style="edgeStyle=orthogonalEdgeStyle;rounded=0;orthogonalLoop=1;jettySize=auto;html=1;entryX=0.5;entryY=0;entryDx=0;entryDy=0;fontFamily=Helvetica;fontSize=12;fontColor=default;" parent="7lBY_pQXQDnRPIEdI0AO-7" source="7lBY_pQXQDnRPIEdI0AO-8" target="7lBY_pQXQDnRPIEdI0AO-22" edge="1">
          <mxGeometry relative="1" as="geometry">
            <Array as="points">
              <mxPoint x="275" y="100" />
              <mxPoint x="475" y="100" />
            </Array>
          </mxGeometry>
        </mxCell>
        <mxCell id="1x8Cyjn647WYstZl3578-7" style="edgeStyle=orthogonalEdgeStyle;rounded=0;orthogonalLoop=1;jettySize=auto;html=1;entryX=0;entryY=0.75;entryDx=0;entryDy=0;" parent="7lBY_pQXQDnRPIEdI0AO-7" source="7lBY_pQXQDnRPIEdI0AO-8" target="1x8Cyjn647WYstZl3578-2" edge="1">
          <mxGeometry relative="1" as="geometry">
            <Array as="points">
              <mxPoint x="275" y="100" />
              <mxPoint x="140" y="100" />
              <mxPoint x="140" y="188" />
            </Array>
          </mxGeometry>
        </mxCell>
        <mxCell id="1x8Cyjn647WYstZl3578-8" style="edgeStyle=orthogonalEdgeStyle;rounded=0;orthogonalLoop=1;jettySize=auto;html=1;entryX=0;entryY=0.5;entryDx=0;entryDy=0;" parent="7lBY_pQXQDnRPIEdI0AO-7" source="7lBY_pQXQDnRPIEdI0AO-8" target="1x8Cyjn647WYstZl3578-3" edge="1">
          <mxGeometry relative="1" as="geometry">
            <Array as="points">
              <mxPoint x="275" y="181" />
            </Array>
          </mxGeometry>
        </mxCell>
        <mxCell id="1x8Cyjn647WYstZl3578-9" style="edgeStyle=orthogonalEdgeStyle;rounded=0;orthogonalLoop=1;jettySize=auto;html=1;entryX=0;entryY=0.5;entryDx=0;entryDy=0;" parent="7lBY_pQXQDnRPIEdI0AO-7" source="7lBY_pQXQDnRPIEdI0AO-8" target="1x8Cyjn647WYstZl3578-4" edge="1">
          <mxGeometry relative="1" as="geometry">
            <Array as="points">
              <mxPoint x="275" y="100" />
              <mxPoint x="409" y="100" />
              <mxPoint x="409" y="181" />
            </Array>
          </mxGeometry>
        </mxCell>
        <mxCell id="7lBY_pQXQDnRPIEdI0AO-8" value="createExplainationConversion[]" style="html=1;fontFamily=Helvetica;fontSize=12;fontColor=default;fillColor=none;" parent="7lBY_pQXQDnRPIEdI0AO-7" vertex="1">
          <mxGeometry width="184" height="30" relative="1" as="geometry">
            <mxPoint x="183" y="50" as="offset" />
          </mxGeometry>
        </mxCell>
        <mxCell id="7lBY_pQXQDnRPIEdI0AO-11" value="introSection[]" style="html=1;fontFamily=Helvetica;fontSize=12;fontColor=default;fillColor=none;" parent="7lBY_pQXQDnRPIEdI0AO-7" vertex="1">
          <mxGeometry x="20" y="120" width="110" height="30" as="geometry" />
        </mxCell>
        <mxCell id="7lBY_pQXQDnRPIEdI0AO-17" value="binToDecSection[]" style="html=1;fontFamily=Helvetica;fontSize=12;fontColor=default;fillColor=none;" parent="7lBY_pQXQDnRPIEdI0AO-7" vertex="1">
          <mxGeometry x="160" y="120" width="110" height="30" as="geometry" />
        </mxCell>
        <mxCell id="7lBY_pQXQDnRPIEdI0AO-20" value="octToDecSection[]" style="html=1;fontFamily=Helvetica;fontSize=12;fontColor=default;fillColor=none;" parent="7lBY_pQXQDnRPIEdI0AO-7" vertex="1">
          <mxGeometry x="290" y="120" width="110" height="30" as="geometry" />
        </mxCell>
        <mxCell id="7lBY_pQXQDnRPIEdI0AO-22" value="hexToDecSection[]" style="html=1;fontFamily=Helvetica;fontSize=12;fontColor=default;fillColor=none;" parent="7lBY_pQXQDnRPIEdI0AO-7" vertex="1">
          <mxGeometry x="420" y="120" width="110" height="30" as="geometry" />
        </mxCell>
        <mxCell id="1x8Cyjn647WYstZl3578-2" value="decToBinSection[]" style="html=1;fontFamily=Helvetica;fontSize=12;fontColor=default;fillColor=none;" parent="7lBY_pQXQDnRPIEdI0AO-7" vertex="1">
          <mxGeometry x="160" y="166" width="110" height="30" as="geometry" />
        </mxCell>
        <mxCell id="1x8Cyjn647WYstZl3578-3" value="decToOctSection[]" style="html=1;fontFamily=Helvetica;fontSize=12;fontColor=default;fillColor=none;" parent="7lBY_pQXQDnRPIEdI0AO-7" vertex="1">
          <mxGeometry x="290" y="166" width="110" height="30" as="geometry" />
        </mxCell>
        <mxCell id="1x8Cyjn647WYstZl3578-4" value="decToHexSection[]" style="html=1;fontFamily=Helvetica;fontSize=12;fontColor=default;fillColor=none;" parent="7lBY_pQXQDnRPIEdI0AO-7" vertex="1">
          <mxGeometry x="420" y="166" width="116" height="30" as="geometry" />
        </mxCell>
        <mxCell id="7lBY_pQXQDnRPIEdI0AO-27" style="edgeStyle=orthogonalEdgeStyle;rounded=0;orthogonalLoop=1;jettySize=auto;html=1;entryX=0.5;entryY=0;entryDx=0;entryDy=0;fontFamily=Helvetica;fontSize=12;fontColor=default;" parent="1" source="7lBY_pQXQDnRPIEdI0AO-25" target="7lBY_pQXQDnRPIEdI0AO-8" edge="1">
          <mxGeometry relative="1" as="geometry">
            <Array as="points">
              <mxPoint x="580" y="220" />
              <mxPoint x="415" y="220" />
            </Array>
          </mxGeometry>
        </mxCell>
        <mxCell id="7lBY_pQXQDnRPIEdI0AO-28" style="edgeStyle=orthogonalEdgeStyle;rounded=0;orthogonalLoop=1;jettySize=auto;html=1;entryX=0;entryY=0.5;entryDx=0;entryDy=0;fontFamily=Helvetica;fontSize=12;fontColor=default;" parent="1" source="7lBY_pQXQDnRPIEdI0AO-25" target="7lBY_pQXQDnRPIEdI0AO-4" edge="1">
          <mxGeometry relative="1" as="geometry">
            <Array as="points">
              <mxPoint x="580" y="220" />
              <mxPoint x="790" y="220" />
              <mxPoint x="790" y="315" />
            </Array>
          </mxGeometry>
        </mxCell>
        <mxCell id="7lBY_pQXQDnRPIEdI0AO-25" value="&lt;p style=&quot;margin: 0px ; margin-top: 6px ; text-align: center&quot;&gt;&lt;b&gt;A_colpi_di_bit.nb&lt;/b&gt;&lt;/p&gt;&lt;hr&gt;&lt;span style=&quot;text-align: center&quot;&gt;&amp;nbsp; createExplainationConversion[]&lt;/span&gt;&lt;p style=&quot;margin: 0px ; margin-left: 8px&quot;&gt;placementUI[]&lt;/p&gt;" style="align=left;overflow=fill;html=1;dropTarget=0;fontFamily=Helvetica;fontSize=12;fontColor=default;fillColor=none;" parent="1" vertex="1">
          <mxGeometry x="481" y="90" width="200" height="90" as="geometry" />
        </mxCell>
        <mxCell id="7lBY_pQXQDnRPIEdI0AO-26" value="" style="shape=component;jettyWidth=8;jettyHeight=4;fontFamily=Helvetica;fontSize=12;fontColor=default;fillColor=none;html=1;" parent="7lBY_pQXQDnRPIEdI0AO-25" vertex="1">
          <mxGeometry x="1" width="20" height="20" relative="1" as="geometry">
            <mxPoint x="-24" y="4" as="offset" />
          </mxGeometry>
        </mxCell>
        <mxCell id="7lBY_pQXQDnRPIEdI0AO-67" style="edgeStyle=orthogonalEdgeStyle;rounded=0;orthogonalLoop=1;jettySize=auto;html=1;entryX=-0.013;entryY=0.93;entryDx=0;entryDy=0;entryPerimeter=0;fontFamily=Helvetica;fontSize=12;fontColor=default;" parent="1" source="7lBY_pQXQDnRPIEdI0AO-29" target="7lBY_pQXQDnRPIEdI0AO-46" edge="1">
          <mxGeometry relative="1" as="geometry">
            <Array as="points">
              <mxPoint x="360" y="729" />
              <mxPoint x="905" y="729" />
              <mxPoint x="905" y="707" />
            </Array>
          </mxGeometry>
        </mxCell>
        <mxCell id="7lBY_pQXQDnRPIEdI0AO-29" value="Interaction.m" style="shape=folder;fontStyle=1;tabWidth=110;tabHeight=30;tabPosition=left;html=1;boundedLbl=1;labelInHeader=1;container=1;collapsible=0;recursiveResize=0;fontFamily=Helvetica;fontSize=12;fontColor=default;fillColor=none;" parent="1" vertex="1">
          <mxGeometry x="82" y="460" width="529" height="258" as="geometry" />
        </mxCell>
        <mxCell id="7lBY_pQXQDnRPIEdI0AO-30" value="&lt;span&gt;&lt;font style=&quot;font-size: 12px&quot;&gt;askSeedInput[]&lt;/font&gt;&lt;/span&gt;&lt;span style=&quot;font-size: medium&quot;&gt;&lt;/span&gt;" style="html=1;fontFamily=Helvetica;fontSize=12;fontColor=default;fillColor=none;" parent="7lBY_pQXQDnRPIEdI0AO-29" vertex="1">
          <mxGeometry width="110" height="30" relative="1" as="geometry">
            <mxPoint x="20" y="50" as="offset" />
          </mxGeometry>
        </mxCell>
        <mxCell id="7lBY_pQXQDnRPIEdI0AO-31" value="&lt;span&gt;&lt;font style=&quot;font-size: 12px&quot;&gt;helpUser[]&lt;/font&gt;&lt;/span&gt;&lt;span style=&quot;font-size: medium&quot;&gt;&lt;/span&gt;" style="html=1;fontFamily=Helvetica;fontSize=12;fontColor=default;fillColor=none;" parent="7lBY_pQXQDnRPIEdI0AO-29" vertex="1">
          <mxGeometry x="20" y="92" width="82" height="30" as="geometry" />
        </mxCell>
        <mxCell id="7lBY_pQXQDnRPIEdI0AO-32" value="&lt;span&gt;&lt;font style=&quot;font-size: 12px&quot;&gt;getUserGrid[]&lt;/font&gt;&lt;/span&gt;&lt;span style=&quot;font-size: medium&quot;&gt;&lt;/span&gt;" style="html=1;fontFamily=Helvetica;fontSize=12;fontColor=default;fillColor=none;" parent="7lBY_pQXQDnRPIEdI0AO-29" vertex="1">
          <mxGeometry x="200" y="133" width="97" height="30" as="geometry" />
        </mxCell>
        <mxCell id="7lBY_pQXQDnRPIEdI0AO-33" value="&lt;span&gt;&lt;font style=&quot;font-size: 12px&quot;&gt;getRemainingShipLengths[]&lt;/font&gt;&lt;/span&gt;&lt;span style=&quot;font-size: medium&quot;&gt;&lt;/span&gt;" style="html=1;fontFamily=Helvetica;fontSize=12;fontColor=default;fillColor=none;" parent="7lBY_pQXQDnRPIEdI0AO-29" vertex="1">
          <mxGeometry x="20" y="133" width="170" height="30" as="geometry" />
        </mxCell>
        <mxCell id="7lBY_pQXQDnRPIEdI0AO-34" value="&lt;span&gt;&lt;font style=&quot;font-size: 12px&quot;&gt;askBaseChoice[]&lt;/font&gt;&lt;/span&gt;&lt;span style=&quot;font-size: medium&quot;&gt;&lt;/span&gt;" style="html=1;fontFamily=Helvetica;fontSize=12;fontColor=default;fillColor=none;" parent="7lBY_pQXQDnRPIEdI0AO-29" vertex="1">
          <mxGeometry x="139" y="50" width="110" height="30" as="geometry" />
        </mxCell>
        <mxCell id="7lBY_pQXQDnRPIEdI0AO-35" value="&lt;span&gt;&lt;font style=&quot;font-size: 12px&quot;&gt;placeUserShip[]&lt;/font&gt;&lt;/span&gt;&lt;span style=&quot;font-size: medium&quot;&gt;&lt;/span&gt;" style="html=1;fontFamily=Helvetica;fontSize=12;fontColor=default;fillColor=none;" parent="7lBY_pQXQDnRPIEdI0AO-29" vertex="1">
          <mxGeometry x="339" y="50" width="110" height="30" as="geometry" />
        </mxCell>
        <mxCell id="7lBY_pQXQDnRPIEdI0AO-37" value="&lt;span&gt;&lt;font style=&quot;font-size: 12px&quot;&gt;isSeed[]&lt;/font&gt;&lt;/span&gt;&lt;span style=&quot;font-size: medium&quot;&gt;&lt;/span&gt;" style="html=1;fontFamily=Helvetica;fontSize=12;fontColor=default;fillColor=none;" parent="7lBY_pQXQDnRPIEdI0AO-29" vertex="1">
          <mxGeometry x="392" y="92" width="73" height="30" as="geometry" />
        </mxCell>
        <mxCell id="7lBY_pQXQDnRPIEdI0AO-39" value="&lt;span&gt;&lt;font style=&quot;font-size: 12px&quot;&gt;isBase[]&lt;/font&gt;&lt;/span&gt;&lt;span style=&quot;font-size: medium&quot;&gt;&lt;/span&gt;" style="html=1;fontFamily=Helvetica;fontSize=12;fontColor=default;fillColor=none;" parent="7lBY_pQXQDnRPIEdI0AO-29" vertex="1">
          <mxGeometry x="261" y="50" width="68" height="30" as="geometry" />
        </mxCell>
        <mxCell id="7lBY_pQXQDnRPIEdI0AO-40" value="&lt;span&gt;&lt;font style=&quot;font-size: 12px&quot;&gt;getUserShips[]&lt;/font&gt;&lt;/span&gt;&lt;span style=&quot;font-size: medium&quot;&gt;&lt;/span&gt;" style="html=1;fontFamily=Helvetica;fontSize=12;fontColor=default;fillColor=none;" parent="7lBY_pQXQDnRPIEdI0AO-29" vertex="1">
          <mxGeometry x="115" y="92" width="110" height="30" as="geometry" />
        </mxCell>
        <mxCell id="qK9vAb9lrZqI7VwVucSK-1" value="helpUserPersonalized[]" style="html=1;fontFamily=Helvetica;fontSize=12;fontColor=default;fillColor=none;" parent="7lBY_pQXQDnRPIEdI0AO-29" vertex="1">
          <mxGeometry x="239" y="92" width="144" height="30" as="geometry" />
        </mxCell>
        <mxCell id="qK9vAb9lrZqI7VwVucSK-2" value="getDifficultyLevels[]" style="html=1;fontFamily=Helvetica;fontSize=12;fontColor=default;fillColor=none;" parent="7lBY_pQXQDnRPIEdI0AO-29" vertex="1">
          <mxGeometry x="20" y="174" width="126" height="30" as="geometry" />
        </mxCell>
        <mxCell id="qK9vAb9lrZqI7VwVucSK-3" value="getCpuShip[]" style="html=1;fontFamily=Helvetica;fontSize=12;fontColor=default;fillColor=none;" parent="7lBY_pQXQDnRPIEdI0AO-29" vertex="1">
          <mxGeometry x="153" y="174" width="89" height="30" as="geometry" />
        </mxCell>
        <mxCell id="qK9vAb9lrZqI7VwVucSK-4" value="getCpuGrid[]" style="html=1;fontFamily=Helvetica;fontSize=12;fontColor=default;fillColor=none;" parent="7lBY_pQXQDnRPIEdI0AO-29" vertex="1">
          <mxGeometry x="250" y="174" width="89" height="30" as="geometry" />
        </mxCell>
        <mxCell id="qK9vAb9lrZqI7VwVucSK-5" value="setShipLengths[]" style="html=1;fontFamily=Helvetica;fontSize=12;fontColor=default;fillColor=none;" parent="7lBY_pQXQDnRPIEdI0AO-29" vertex="1">
          <mxGeometry x="20" y="215" width="111" height="30" as="geometry" />
        </mxCell>
        <mxCell id="qK9vAb9lrZqI7VwVucSK-21" value="setUserBase[]" style="html=1;fontFamily=Helvetica;fontSize=12;fontColor=default;fillColor=none;" parent="7lBY_pQXQDnRPIEdI0AO-29" vertex="1">
          <mxGeometry x="139" y="215" width="93" height="30" as="geometry" />
        </mxCell>
        <mxCell id="qK9vAb9lrZqI7VwVucSK-38" value="setGridSize[]" style="html=1;fontFamily=Helvetica;fontSize=12;fontColor=default;fillColor=none;" parent="7lBY_pQXQDnRPIEdI0AO-29" vertex="1">
          <mxGeometry x="242" y="215" width="82" height="30" as="geometry" />
        </mxCell>
        <mxCell id="qK9vAb9lrZqI7VwVucSK-39" value="setCPUShips[]" style="html=1;fontFamily=Helvetica;fontSize=12;fontColor=default;fillColor=none;" parent="7lBY_pQXQDnRPIEdI0AO-29" vertex="1">
          <mxGeometry x="335" y="215" width="97" height="30" as="geometry" />
        </mxCell>
        <mxCell id="qK9vAb9lrZqI7VwVucSK-40" value="setSeed[]" style="html=1;fontFamily=Helvetica;fontSize=12;fontColor=default;fillColor=none;" parent="7lBY_pQXQDnRPIEdI0AO-29" vertex="1">
          <mxGeometry x="345.5" y="174" width="79" height="30" as="geometry" />
        </mxCell>
        <mxCell id="qK9vAb9lrZqI7VwVucSK-41" value="setUserShips[]" style="html=1;fontFamily=Helvetica;fontSize=12;fontColor=default;fillColor=none;" parent="7lBY_pQXQDnRPIEdI0AO-29" vertex="1">
          <mxGeometry x="309" y="133" width="89" height="30" as="geometry" />
        </mxCell>
        <mxCell id="qK9vAb9lrZqI7VwVucSK-42" value="setCPUGrid[]" style="html=1;fontFamily=Helvetica;fontSize=12;fontColor=default;fillColor=none;" parent="7lBY_pQXQDnRPIEdI0AO-29" vertex="1">
          <mxGeometry x="406" y="133" width="108" height="30" as="geometry" />
        </mxCell>
        <mxCell id="qK9vAb9lrZqI7VwVucSK-43" value="setUserGrid[]" style="html=1;fontFamily=Helvetica;fontSize=12;fontColor=default;fillColor=none;" parent="7lBY_pQXQDnRPIEdI0AO-29" vertex="1">
          <mxGeometry x="435" y="174" width="83.5" height="30" as="geometry" />
        </mxCell>
        <mxCell id="7lBY_pQXQDnRPIEdI0AO-65" style="edgeStyle=orthogonalEdgeStyle;rounded=0;orthogonalLoop=1;jettySize=auto;html=1;exitX=0;exitY=0;exitDx=280;exitDy=67.5;exitPerimeter=0;entryX=0.004;entryY=0.421;entryDx=0;entryDy=0;entryPerimeter=0;fontFamily=Helvetica;fontSize=12;fontColor=default;" parent="1" source="7lBY_pQXQDnRPIEdI0AO-43" target="7lBY_pQXQDnRPIEdI0AO-46" edge="1">
          <mxGeometry relative="1" as="geometry">
            <Array as="points">
              <mxPoint x="918" y="557" />
              <mxPoint x="918" y="538" />
            </Array>
          </mxGeometry>
        </mxCell>
        <mxCell id="7lBY_pQXQDnRPIEdI0AO-43" value="Battle.m" style="shape=folder;fontStyle=1;tabWidth=110;tabHeight=30;tabPosition=left;html=1;boundedLbl=1;labelInHeader=1;container=1;collapsible=0;recursiveResize=0;fontFamily=Helvetica;fontSize=12;fontColor=default;fillColor=none;" parent="1" vertex="1">
          <mxGeometry x="620" y="490" width="280" height="180" as="geometry" />
        </mxCell>
        <mxCell id="7lBY_pQXQDnRPIEdI0AO-44" value="generateCoordinate[]" style="html=1;fontFamily=Helvetica;fontSize=12;fontColor=default;fillColor=none;" parent="7lBY_pQXQDnRPIEdI0AO-43" vertex="1">
          <mxGeometry width="130" height="30" relative="1" as="geometry">
            <mxPoint x="20" y="50" as="offset" />
          </mxGeometry>
        </mxCell>
        <mxCell id="7lBY_pQXQDnRPIEdI0AO-48" value="&lt;span&gt;&lt;font style=&quot;font-size: 12px&quot;&gt;attack[]&lt;/font&gt;&lt;/span&gt;&lt;span style=&quot;font-size: medium&quot;&gt;&lt;/span&gt;" style="html=1;fontFamily=Helvetica;fontSize=12;fontColor=default;fillColor=none;" parent="7lBY_pQXQDnRPIEdI0AO-43" vertex="1">
          <mxGeometry x="190" y="50" width="70" height="30" as="geometry" />
        </mxCell>
        <mxCell id="7lBY_pQXQDnRPIEdI0AO-49" value="&lt;span&gt;&lt;font style=&quot;font-size: 12px&quot;&gt;generateCPUShips[]&lt;/font&gt;&lt;/span&gt;&lt;span style=&quot;font-size: medium&quot;&gt;&lt;/span&gt;" style="html=1;fontFamily=Helvetica;fontSize=12;fontColor=default;fillColor=none;" parent="7lBY_pQXQDnRPIEdI0AO-43" vertex="1">
          <mxGeometry x="140" y="130" width="120" height="30" as="geometry" />
        </mxCell>
        <mxCell id="7lBY_pQXQDnRPIEdI0AO-50" value="&lt;span&gt;&lt;font style=&quot;font-size: 12px&quot;&gt;startGame[]&lt;/font&gt;&lt;/span&gt;&lt;span style=&quot;font-size: medium&quot;&gt;&lt;/span&gt;" style="html=1;fontFamily=Helvetica;fontSize=12;fontColor=default;fillColor=none;" parent="7lBY_pQXQDnRPIEdI0AO-43" vertex="1">
          <mxGeometry x="150" y="90" width="110" height="30" as="geometry" />
        </mxCell>
        <mxCell id="7lBY_pQXQDnRPIEdI0AO-36" value="&lt;span&gt;&lt;font style=&quot;font-size: 12px&quot;&gt;resetGame[]&lt;/font&gt;&lt;/span&gt;&lt;span style=&quot;font-size: medium&quot;&gt;&lt;/span&gt;" style="html=1;fontFamily=Helvetica;fontSize=12;fontColor=default;fillColor=none;" parent="7lBY_pQXQDnRPIEdI0AO-43" vertex="1">
          <mxGeometry x="20" y="130" width="110" height="30" as="geometry" />
        </mxCell>
        <mxCell id="7lBY_pQXQDnRPIEdI0AO-38" value="&lt;span&gt;&lt;font style=&quot;font-size: 12px&quot;&gt;initPhase[]&lt;/font&gt;&lt;/span&gt;" style="html=1;fontFamily=Helvetica;fontSize=12;fontColor=default;fillColor=none;" parent="7lBY_pQXQDnRPIEdI0AO-43" vertex="1">
          <mxGeometry x="20" y="90" width="110" height="30" as="geometry" />
        </mxCell>
        <mxCell id="7lBY_pQXQDnRPIEdI0AO-46" value="Util.m" style="shape=folder;fontStyle=1;tabWidth=110;tabHeight=30;tabPosition=left;html=1;boundedLbl=1;labelInHeader=1;container=1;collapsible=0;recursiveResize=0;fontFamily=Helvetica;fontSize=12;fontColor=default;fillColor=none;" parent="1" vertex="1">
          <mxGeometry x="939" y="399" width="150" height="331" as="geometry" />
        </mxCell>
        <mxCell id="7lBY_pQXQDnRPIEdI0AO-47" value="&lt;span&gt;&lt;font style=&quot;font-size: 12px&quot;&gt;initSeed[]&lt;/font&gt;&lt;/span&gt;&lt;span style=&quot;font-size: medium&quot;&gt;&lt;/span&gt;" style="html=1;fontFamily=Helvetica;fontSize=12;fontColor=default;fillColor=none;" parent="7lBY_pQXQDnRPIEdI0AO-46" vertex="1">
          <mxGeometry width="110" height="30" relative="1" as="geometry">
            <mxPoint x="20" y="48" as="offset" />
          </mxGeometry>
        </mxCell>
        <mxCell id="7lBY_pQXQDnRPIEdI0AO-53" value="&lt;span&gt;&lt;font style=&quot;font-size: 12px&quot;&gt;convertToDecimal[]&lt;/font&gt;&lt;/span&gt;&lt;span style=&quot;font-size: medium&quot;&gt;&lt;/span&gt;" style="html=1;fontFamily=Helvetica;fontSize=12;fontColor=default;fillColor=none;" parent="7lBY_pQXQDnRPIEdI0AO-46" vertex="1">
          <mxGeometry x="20" y="88" width="110" height="30" as="geometry" />
        </mxCell>
        <mxCell id="7lBY_pQXQDnRPIEdI0AO-55" value="&lt;span&gt;&lt;font style=&quot;font-size: 12px&quot;&gt;verifyInput[]&lt;/font&gt;&lt;/span&gt;&lt;span style=&quot;font-size: medium&quot;&gt;&lt;/span&gt;" style="html=1;fontFamily=Helvetica;fontSize=12;fontColor=default;fillColor=none;" parent="7lBY_pQXQDnRPIEdI0AO-46" vertex="1">
          <mxGeometry x="20" y="129" width="110" height="30" as="geometry" />
        </mxCell>
        <mxCell id="7lBY_pQXQDnRPIEdI0AO-56" value="&lt;span&gt;&lt;font style=&quot;font-size: 12px&quot;&gt;createGrid[]&lt;/font&gt;&lt;/span&gt;&lt;span style=&quot;font-size: medium&quot;&gt;&lt;/span&gt;" style="html=1;fontFamily=Helvetica;fontSize=12;fontColor=default;fillColor=none;" parent="7lBY_pQXQDnRPIEdI0AO-46" vertex="1">
          <mxGeometry x="20" y="169" width="110" height="30" as="geometry" />
        </mxCell>
        <mxCell id="7lBY_pQXQDnRPIEdI0AO-57" value="&lt;span&gt;&lt;font style=&quot;font-size: 12px&quot;&gt;showGrid[]&lt;/font&gt;&lt;/span&gt;&lt;span style=&quot;font-size: medium&quot;&gt;&lt;/span&gt;" style="html=1;fontFamily=Helvetica;fontSize=12;fontColor=default;fillColor=none;" parent="7lBY_pQXQDnRPIEdI0AO-46" vertex="1">
          <mxGeometry x="20" y="209" width="110" height="30" as="geometry" />
        </mxCell>
        <mxCell id="O4PBWku0AnlKPwuUUSTr-1" value="conversionFromDec[]" style="html=1;fontFamily=Helvetica;fontSize=12;fontColor=default;fillColor=none;" parent="7lBY_pQXQDnRPIEdI0AO-46" vertex="1">
          <mxGeometry x="9" y="289" width="132" height="30" as="geometry" />
        </mxCell>
        <mxCell id="1x8Cyjn647WYstZl3578-1" value="conversionToDec[]" style="html=1;fontFamily=Helvetica;fontSize=12;fontColor=default;fillColor=none;" parent="7lBY_pQXQDnRPIEdI0AO-46" vertex="1">
          <mxGeometry x="20" y="249" width="110" height="30" as="geometry" />
        </mxCell>
      </root>
    </mxGraphModel>
  </diagram>
</mxfile>
